<?xml version="1.0" encoding="utf-8"?>
<!-- Generator: Adobe Illustrator 24.0.1, SVG Export Plug-In . SVG Version: 6.00 Build 0)  -->
<svg version="1.1" id="Camada_1" xmlns="http://www.w3.org/2000/svg" xmlns:xlink="http://www.w3.org/1999/xlink" x="0px" y="0px"
	 viewBox="0 0 710.7 800" style="enable-background:new 0 0 710.7 800;" xml:space="preserve">
<style type="text/css">
	.st0{fill:url(#SVGID_1_);}
</style>
<linearGradient id="SVGID_1_" gradientUnits="userSpaceOnUse" x1="104.4137" y1="696.0175" x2="606.1792" y2="194.252">
	<stop  offset="0" style="stop-color:#5545E6"/>
	<stop  offset="0.1916" style="stop-color:#683FE7"/>
	<stop  offset="0.4658" style="stop-color:#7D39E9"/>
	<stop  offset="0.7352" style="stop-color:#8A35EA"/>
	<stop  offset="0.9916" style="stop-color:#8E34EA"/>
</linearGradient>
<path class="st0" d="M352,800c-83.8,0-160.3-28.8-227.8-85.9C57.8,657.5,17.3,584.5,4,497c-22.2-146.5,50.5-292.4,181.1-363.1
	c46.6-25.3,96.1-39.7,147.7-42.6c3.5-0.3,7-0.5,10.6-0.6V25.4l0.5-1.4c0-0.2,0-0.3,0-0.5c0.2-2.2,0.5-6.4,3-11l7-12.5l11.5,8.6
	c32.8,24.6,65.4,49.3,98.2,73.9c33.1,25,66.4,49.9,99.7,75l13.3,10.1l-13.3,9.9c-41.6,31.2-83.3,62.5-123.7,92.9
	c-24.6,18.6-49.1,37-73.6,55.5l-8.6,6.6l-7.7-7.7c-5.9-5.9-5.4-13.1-5.3-16.2c0-0.3,0-0.5,0-0.6v-63.7
	c-89.3,5-166.7,71.2-185.1,159.3C137.5,509.3,201.5,613.2,305,640c55.3,14.4,112,5.6,159.8-24.6c46.7-29.8,79.3-77.9,89.4-132.3
	c12.6-68.3-6.1-129.1-55.7-180.4c-1-1-1.6-1.6-2.2-2.2c-2.6-2.6-6.6-6.6-6.2-13.1c0.3-6.7,4.8-10.2,9.6-13.9l0.8-0.6
	c15.2-11.4,30.2-22.9,45.4-34.2c15-11.4,30.2-22.9,45.3-34.2c11.2-8.2,18.2-7.5,27.4,2.2c51.2,56.8,81.3,121.6,89.3,192.6
	c14.1,120.9-23.8,224.4-112.5,307.5c-48.8,45.9-107.2,75.2-173.6,86.7C398,797.9,374.7,800,352,800z"/>
</svg>
