<?xml version="1.0" encoding="utf-8"?>
<!-- Generator: Adobe Illustrator 24.0.1, SVG Export Plug-In . SVG Version: 6.00 Build 0)  -->
<svg version="1.1" id="Layer_1" xmlns="http://www.w3.org/2000/svg" xmlns:xlink="http://www.w3.org/1999/xlink" x="0px" y="0px"
	 viewBox="0 0 312.6 358.4" style="enable-background:new 0 0 312.6 358.4;" xml:space="preserve">
<style type="text/css">
	.st0{fill:#F1F1F2;}
	.st1{fill:#D0D2D3;}
	.st2{fill:#E95935;}
	.st3{fill:#E94921;}
	.st4{fill:#C43E1C;}
	.st5{fill:#FFFFFF;}
</style>
<title></title>
<g>
	<g>
		<path class="st0" d="M264.1,26.9v304.6c0,14.8-12,26.9-26.9,26.9H40.8c-14.8,0-26.9-12-26.9-26.9V87.1L101,0h136.1
			C252.1,0,264.1,12,264.1,26.9z"/>
	</g>
	<g>
		<path class="st1" d="M14,87.1L101.1,0v60.4c0,14.8-12,26.8-26.8,26.8H14V87.1z"/>
	</g>
	<g>
		<polygon class="st1" points="264.1,232.3 264.1,323.6 96.9,323.6 40.5,308.6 14,308.6 14,247.3 40.5,247.3 40.5,247.2 96.9,232.3 
					"/>
	</g>
	<g>
		<g>
			<path class="st2" d="M291,312.8H96.9v-91.3H291c11.9,0,21.6,9.7,21.6,21.6v48.1C312.6,303.1,303,312.8,291,312.8z"/>
		</g>
		<g>
			<polygon class="st3" points="96.9,312.8 40.5,297.8 40.5,236.4 96.9,221.5 			"/>
		</g>
		<g>
			<rect y="236.5" class="st2" width="40.5" height="61.4"/>
		</g>
		<g>
			<polygon class="st4" points="0,236.5 14,228.1 14,236.5 			"/>
		</g>
		<g>
			<polygon class="st4" points="0,297.8 14,306.2 14,297.8 			"/>
		</g>
	</g>
	<g>
		<path class="st5" d="M136.1,297.5v-58.4h19.1c2.3,0,4.4,0.1,6.2,0.2s3.4,0.4,4.8,0.7c1.4,0.4,2.7,0.8,3.8,1.4
			c1.1,0.6,2.2,1.2,3.2,2.1c2.2,1.8,3.9,4.1,5.1,6.7c1.2,2.7,1.8,5.6,1.8,8.8c0,3-0.6,5.8-1.7,8.5s-2.6,4.9-4.5,6.7
			c-2,1.9-4.3,3.2-6.9,3.9c-2.6,0.8-6,1.1-10.2,1.1h-6.4v18.3L136.1,297.5L136.1,297.5z M150.4,266.1h6c6.2,0,9.3-2.3,9.3-6.9
			c0-2.5-0.8-4.2-2.3-5.3c-1.5-1.1-4.1-1.6-7.6-1.6h-5.4V266.1z"/>
		<path class="st5" d="M186.7,297.5v-58.4h19.6c2.2,0,4.2,0.1,5.9,0.2c1.7,0.1,3.3,0.4,4.7,0.7c1.4,0.3,2.8,0.8,4,1.3
			c1.3,0.6,2.5,1.2,3.7,2c2.7,1.7,5.1,3.9,7.1,6.7c3.6,5,5.3,11,5.3,18c0,4.4-0.7,8.5-2,12.1s-3.2,6.7-5.6,9.3
			c-2.4,2.6-5.3,4.6-8.7,6c-3.4,1.4-7.2,2.1-11.3,2.1L186.7,297.5L186.7,297.5z M201.6,284.4h6.4c4.7,0,8.2-1.4,10.6-4.1
			s3.6-6.6,3.6-11.8c0-5.3-1.2-9.3-3.7-12.1s-6-4.2-10.5-4.2h-6.5v32.2H201.6z"/>
		<path class="st5" d="M244.7,297.5v-58.4h31.9v13.1H259v9.9h17v13.1h-17v22.2L244.7,297.5L244.7,297.5z"/>
	</g>
</g>
</svg>
