<?xml version="1.0" encoding="utf-8"?>
<!-- Generator: Adobe Illustrator 24.0.1, SVG Export Plug-In . SVG Version: 6.00 Build 0)  -->
<svg version="1.1" id="Camada_1" xmlns="http://www.w3.org/2000/svg" xmlns:xlink="http://www.w3.org/1999/xlink" x="0px" y="0px"
	 viewBox="0 0 1000 1000" style="enable-background:new 0 0 1000 1000;" xml:space="preserve">
<style type="text/css">
	.st0{fill:#F0F0F0;}
	.st1{fill:#AEB6BA;}
</style>
<circle class="st0" cx="500" cy="500" r="495"/>
<path class="st1" d="M810.5,885.5c0-0.6,0-4.6,0-5.2c-0.3-16.8,0.7-33.6-1.3-50.4c-0.9-8.1-2-16.2-3.6-24.2
	c-2.2-11.3-5.2-22.5-8.9-33.4c-2.3-6.8-4.9-13.5-7.7-20.2c-4.6-10.8-9.9-21.1-15.9-31.2c-5.4-9.2-11.5-18-18-26.5
	c-4.3-5.5-8.6-11-13.4-16.1c-7.3-7.6-14.6-15.3-22.7-22.3c-4.5-3.8-9-7.6-13.7-11.2c-8-6.2-16.5-11.8-25.2-17.1
	c-10.6-6.4-21.6-12-33-16.8c-14.6-6.2-29.6-11-45.1-14.4c-7.9-1.7-15.8-3.3-23.8-4.2c-4.5-0.5-9.1-1-13.6-1.4
	c-5.3-0.5-10.6-1.1-16-1.1c-11.8,0-23.6-0.1-35.4,0c-24.3,0.3-48.5-0.8-72.8,0.6c-5.4,0.3-10.9,0.7-16.3,1.4
	c-8.9,1.2-17.9,2.6-26.7,4.6c-20.6,4.8-40.4,11.7-59.4,21.1c-13.3,6.6-26,14.3-38.1,23c-9.6,6.9-18.6,14.4-27.2,22.5
	c-6.8,6.4-13.2,13.3-19.4,20.4c-6.3,7.4-12.3,15.1-17.7,23.1c-8.5,12.4-15.9,25.3-22.1,39c-3.6,7.9-6.9,15.8-9.7,23.9
	c-3.8,10.8-6.7,21.9-9.2,33c-1.3,5.8-2.3,11.8-3.1,17.7c-0.7,5.1-1.2,10.1-1.6,15.3c-0.5,5.8-0.8,11.5-1,17.3
	c-0.3,10.6-0.2,21.2-0.2,31.8c0.2,0.4,0.4,0.7,0.7,0.9c0,0,0,0.1-0.1,0.1C274.4,954,382.4,995,500,995
	C619.3,995,725.1,955.7,810.5,885.5"/>
<path class="st1" d="M496.6,188.6c48.8,0.3,87.7,16.3,119.5,48.1c32.2,32.3,48.1,71.8,48,117.6c-0.2,89-73.7,163.5-164.9,162.8
	c-45.4-0.4-84.4-16.7-116.3-48.8c-31.7-32-47.7-71.3-47.4-116.2c0.3-44.8,16.4-83.7,48.3-115.5C415.9,204.7,454.9,188.9,496.6,188.6
	z"/>
</svg>
